<mxfile host="app.diagrams.net" agent="Mozilla/5.0 (X11; Linux x86_64) AppleWebKit/537.36 (KHTML, like Gecko) Chrome/109.0.0.0 Safari/537.36" version="24.7.7">
  <diagram name="Page-1" id="chAeK3eOft7Rcz---CY4">
    <mxGraphModel dx="1354" dy="571" grid="1" gridSize="10" guides="1" tooltips="1" connect="1" arrows="1" fold="1" page="1" pageScale="1" pageWidth="850" pageHeight="1100" math="0" shadow="0">
      <root>
        <mxCell id="0" />
        <mxCell id="1" parent="0" />
        <mxCell id="Agc096l2K-z1eEzq_gJK-3" value="" style="edgeStyle=orthogonalEdgeStyle;rounded=0;orthogonalLoop=1;jettySize=auto;html=1;" edge="1" parent="1" source="Agc096l2K-z1eEzq_gJK-1" target="Agc096l2K-z1eEzq_gJK-2">
          <mxGeometry relative="1" as="geometry" />
        </mxCell>
        <mxCell id="Agc096l2K-z1eEzq_gJK-1" value="" style="rounded=1;whiteSpace=wrap;html=1;" vertex="1" parent="1">
          <mxGeometry x="360" y="40" width="120" height="60" as="geometry" />
        </mxCell>
        <mxCell id="Agc096l2K-z1eEzq_gJK-5" value="" style="edgeStyle=orthogonalEdgeStyle;rounded=0;orthogonalLoop=1;jettySize=auto;html=1;" edge="1" parent="1" source="Agc096l2K-z1eEzq_gJK-2" target="Agc096l2K-z1eEzq_gJK-4">
          <mxGeometry relative="1" as="geometry" />
        </mxCell>
        <mxCell id="Agc096l2K-z1eEzq_gJK-2" value="" style="whiteSpace=wrap;html=1;rounded=1;" vertex="1" parent="1">
          <mxGeometry x="360" y="140" width="120" height="60" as="geometry" />
        </mxCell>
        <mxCell id="Agc096l2K-z1eEzq_gJK-7" value="" style="edgeStyle=orthogonalEdgeStyle;rounded=0;orthogonalLoop=1;jettySize=auto;html=1;" edge="1" parent="1" source="Agc096l2K-z1eEzq_gJK-4" target="Agc096l2K-z1eEzq_gJK-6">
          <mxGeometry relative="1" as="geometry" />
        </mxCell>
        <mxCell id="Agc096l2K-z1eEzq_gJK-4" value="" style="whiteSpace=wrap;html=1;rounded=1;" vertex="1" parent="1">
          <mxGeometry x="560" y="140" width="120" height="60" as="geometry" />
        </mxCell>
        <mxCell id="Agc096l2K-z1eEzq_gJK-11" value="" style="edgeStyle=orthogonalEdgeStyle;rounded=0;orthogonalLoop=1;jettySize=auto;html=1;" edge="1" parent="1" source="Agc096l2K-z1eEzq_gJK-6" target="Agc096l2K-z1eEzq_gJK-10">
          <mxGeometry relative="1" as="geometry" />
        </mxCell>
        <mxCell id="Agc096l2K-z1eEzq_gJK-6" value="" style="whiteSpace=wrap;html=1;rounded=1;" vertex="1" parent="1">
          <mxGeometry x="560" y="240" width="120" height="60" as="geometry" />
        </mxCell>
        <mxCell id="Agc096l2K-z1eEzq_gJK-10" value="" style="whiteSpace=wrap;html=1;rounded=1;" vertex="1" parent="1">
          <mxGeometry x="560" y="340" width="120" height="60" as="geometry" />
        </mxCell>
        <mxCell id="Agc096l2K-z1eEzq_gJK-12" value="Login" style="text;html=1;align=center;verticalAlign=middle;whiteSpace=wrap;rounded=0;" vertex="1" parent="1">
          <mxGeometry x="360" y="40" width="120" height="60" as="geometry" />
        </mxCell>
        <mxCell id="Agc096l2K-z1eEzq_gJK-13" value="Siswa" style="text;html=1;align=center;verticalAlign=middle;whiteSpace=wrap;rounded=0;" vertex="1" parent="1">
          <mxGeometry x="390" y="155" width="60" height="30" as="geometry" />
        </mxCell>
        <mxCell id="Agc096l2K-z1eEzq_gJK-14" value="Ruang uks" style="text;html=1;align=center;verticalAlign=middle;whiteSpace=wrap;rounded=0;" vertex="1" parent="1">
          <mxGeometry x="590" y="155" width="60" height="30" as="geometry" />
        </mxCell>
        <mxCell id="Agc096l2K-z1eEzq_gJK-15" value="Persediaan obat" style="text;html=1;align=center;verticalAlign=middle;whiteSpace=wrap;rounded=0;" vertex="1" parent="1">
          <mxGeometry x="565" y="255" width="110" height="30" as="geometry" />
        </mxCell>
        <mxCell id="Agc096l2K-z1eEzq_gJK-16" value="Kembali ke kelas" style="text;html=1;align=center;verticalAlign=middle;whiteSpace=wrap;rounded=0;" vertex="1" parent="1">
          <mxGeometry x="565" y="356" width="110" height="30" as="geometry" />
        </mxCell>
      </root>
    </mxGraphModel>
  </diagram>
</mxfile>
